<?xml version="1.0" encoding="utf-8"?>
<!-- Generator: Adobe Illustrator 21.0.0, SVG Export Plug-In . SVG Version: 6.00 Build 0)  -->
<svg version="1.1" id="Camada_1" xmlns="http://www.w3.org/2000/svg" xmlns:xlink="http://www.w3.org/1999/xlink" x="0px" y="0px"
	 viewBox="0 0 378.9 198.8" style="enable-background:new 0 0 378.9 198.8;" xml:space="preserve">
<style type="text/css">
	.st0{fill:#5A2F81;}
</style>
<g id="Camada_1_1_">
	<rect x="-614.1" y="143.8" class="st0" width="80.9" height="530.3"/>
	<path class="st0" d="M78.3-189.8L-246-311.1l28.6-74.9l324.2,121.3c20.9,7.8,31.4,30.9,23.5,51.6l0,0
		C122.5-192.4,99.2-182,78.3-189.8z"/>
	<path class="st0" d="M54.7,196.2L378.9,74.9L350.3,0L26.1,121.3c-20.9,7.8-31.4,30.9-23.5,51.6l0,0C10.5,193.6,33.8,204,54.7,196.2
		z"/>
	<path class="st0" d="M-746.4,956.1l218.2-255.7l-61.8-51.7l-218.2,255.7c-14.5,17-12.4,42.3,4.7,56.6l0,0
		C-786.4,975.2-760.9,973.1-746.4,956.1z"/>
	<path class="st0" d="M-401.8,956.2l-217.3-254.6l61.8-51.7L-340,904.5c14.4,16.9,12.3,42.2-4.8,56.4l0,0
		C-361.8,975.2-387.3,973.1-401.8,956.2z"/>
	<path class="st0" d="M-573.6-550.6c-135,0-244.4,108.4-244.4,242.2S-708.6-66.2-573.6-66.2s244.4-108.4,244.4-242.2
		S-438.6-550.6-573.6-550.6z M-573.6-147c-90,0-162.9-72.3-162.9-161.4s72.9-161.5,162.9-161.5s162.9,72.3,162.9,161.4
		S-483.6-147-573.6-147z"/>
</g>
<g id="Camada_2">
</g>
</svg>
