<?xml version="1.0" encoding="utf-8"?>
<!-- Generator: Adobe Illustrator 21.0.0, SVG Export Plug-In . SVG Version: 6.00 Build 0)  -->
<svg version="1.1" id="Camada_1" xmlns="http://www.w3.org/2000/svg" xmlns:xlink="http://www.w3.org/1999/xlink" x="0px" y="0px"
	 viewBox="0 0 496 461" style="enable-background:new 0 0 496 461;" xml:space="preserve">
<style type="text/css">
	.st0{fill:#F7E3D0;}
	.st1{fill:#FAFAF5;}
	.st2{fill:#EDEDE0;}
	.st3{fill:#4A607F;}
	.st4{fill:#593F3E;}
	.st5{fill:#909EB1;}
	.st6{fill:#A3A27F;}
	.st7{fill:#E27A5D;}
	.st8{fill:#BEB72C;}
	.st9{fill:#D8C665;}
	.st10{fill:#3D6C95;}
	.st11{fill:#ECEBC6;}
	.st12{fill:#DBD78B;}
	.st13{fill:#F6F5E6;}
	.st14{fill:#553C3B;}
	.st15{fill:#2C373F;}
	.st16{fill:#354149;}
	.st17{fill:#E06B56;}
	.st18{opacity:0.34;fill:#F6F5E6;}
	.st19{opacity:0.58;fill:#F6F5E6;}
	.st20{fill:#5C708A;}
	.st21{fill:#B6A8AA;}
	.st22{opacity:0.29;}
	.st23{fill:#553137;}
	.st24{fill:#D3D1D1;}
	.st25{fill:#F2F1F1;}
	.st26{fill:#6E5394;}
	.st27{fill:#FFFFFF;}
</style>
<g>
	<g>
		<path class="st0" d="M432.8,149.6c-19.4-19.4-40.9-36.6-61.9-54.1c-9.7-8.1-19.8-15.1-26.2-25.8c-6-10-7.7-22-14.4-31.7
			c-5.2-7.5-12.7-13.2-20.5-17.9C276.7,0.1,234.9-5,198,6.4c-33.9,10.4-63.2,34.5-80.3,65.5c-10.4,18.8-14.7,40.4-25.9,58.8
			c-11.8,19.4-30.7,29.8-48.1,43.4c-12.2,9.6-23,20.8-32,33.4c-5.2,7.2-9.9,15.2-11.3,23.9c-4,23.9,16.4,44.7,37,57.5
			c25.4,15.8,54.6,26.7,84.2,31.2c23.4,3.6,49.8,2.9,71.4,13.8c24.3,12.3,29.5,39.5,43.5,60.9c31.5,48,106,58.7,155,34.3
			c60.5-30.1,118.5-110.9,102.3-180.4c-8.9-37.9-32.5-70.7-59.9-98.3C433.4,150.2,433.1,149.9,432.8,149.6z"/>
	</g>
	<g>
		<g>
			<ellipse class="st0" cx="245.8" cy="454.4" rx="118" ry="6.4"/>
			<g>
				<g>
					<path class="st1" d="M329.1,450.5h-151c-9.3,0-18.2-7-18.2-15.2v-2.2c0-8.2,8.8-14.8,18.2-14.8h151c0,0-4.2,5.4-4.2,15.4
						C324.9,445.1,329.1,450.5,329.1,450.5z"/>
				</g>
				<g>
					<path class="st2" d="M330.9,451.2H236v-31.5h94.9c0,0-4.2,5-4.2,15C326.6,446.1,330.9,451.2,330.9,451.2z"/>
				</g>
				<g>
					<path class="st3" d="M180.9,450.9c-10.4,0-18.3-6.7-18.3-15.3v-2.2c0-4.2,1.7-8.1,5.3-11c3.5-2.8,8-4.3,12.9-4.3
						c0.7,0,1.2,0.5,1.2,1.1c0,0.6-0.2,1.1-0.9,1.1c-9,0-15.8,5.7-15.8,13.1v2.2c0,7.3,6.7,13.1,15.7,13.1c0.7,0,1.2,0.5,1.2,1.1
						C182.3,450.4,181.6,450.9,180.9,450.9z"/>
				</g>
				<g>
					<path class="st4" d="M331.9,451.9H177.6c-10.6,0-19.8-7.3-19.8-16.6v-2.2c0-9,9-16.2,19.8-16.2h154.3v3.4H177.6
						c-8.4,0-15,5.9-15,12.7v2.2c0,7.1,6.9,13.1,15,13.1h154.3V451.9z"/>
				</g>
			</g>
			<g>
				<g>
					<path class="st1" d="M295,321.7h-98.7c-7,0-13.1-5.8-13.1-11.9v-1.7c0-6.1,6.1-10.4,13.1-10.4H295c0,0-3.2,3.9-3.2,11.4
						C291.8,317.7,295,321.7,295,321.7z"/>
				</g>
				<g>
					<path class="st2" d="M296.3,321.7h-78.9v-24h78.9c0,0-3.2,3.9-3.2,11.4C293.1,317.7,296.3,321.7,296.3,321.7z"/>
				</g>
				<g>
					<path class="st3" d="M198.4,321.5c-7.8,0-13.8-5-13.8-11.5v-1.7c0-3.2,1.4-6.1,4.1-8.2c2.6-2.1,6-3.2,9.7-3.2
						c0.5,0,0.9,0.4,0.9,0.8s-0.6,0.8-1.1,0.8c-6.8,0-12.2,4.3-12.2,9.8v1.7c0,5.5,5.4,9.8,12.2,9.8c0.5,0,1.1,0.4,1.1,0.8
						C199.2,321.1,198.9,321.5,198.4,321.5z"/>
				</g>
				<g>
					<path class="st5" d="M297,322.3H196c-7.9,0-14.1-5.6-14.1-12.6v-1.7c0-6.7,6.1-12.5,14.1-12.5h101v2.7H196
						c-6.3,0-11.4,4.6-11.4,9.7v1.7c0,5.3,5.3,10.5,11.4,10.5h101V322.3z"/>
				</g>
			</g>
			<g>
				<g>
					<path class="st1" d="M334.1,366.2H181.3c-7.2,0-12.5-5.8-12.5-12.1v-1.7c0-6.3,5.3-11.5,12.5-11.5h152.8c0,0-3.3,4.4-3.3,12.1
						C330.9,361.8,334.1,366.2,334.1,366.2z"/>
				</g>
				<g>
					<path class="st2" d="M334.1,341.4H222.5v24.5h111.6c0,0-3.3-3.9-3.3-12.8C330.9,345.3,334.1,341.4,334.1,341.4z"/>
				</g>
				<g>
					<path class="st6" d="M183.2,367.1c-7.8,0-13.7-5.7-13.7-12.7v-1.7c0-6.8,6.1-12.4,14.1-12.4c0.7,0,1.1,0.5,1.1,1.1
						s-0.8,1.1-1.6,1.1c-6.6,0-12.2,4.6-12.2,10.2v1.7c0,5.8,5.4,10.5,11.7,10.5c0.7,0,1.6,0.5,1.6,1.1
						C184.2,366.6,183.9,367.1,183.2,367.1z"/>
				</g>
				<g>
					<path class="st7" d="M337.4,367.6H181c-7.9,0-14.9-6.4-14.9-13.5v-1.7c0-6.9,6.6-12.2,14.9-12.2h156.4v2.7H181
						c-4.9,0-11.5,5.8-11.5,9.5v1.7c0,5.8,5.1,11.4,11.5,11.4h156.4V367.6z"/>
				</g>
			</g>
			<g>
				<g>
					<path class="st1" d="M187.7,415.5h40.5c6.5,0,11.2-4.9,11.2-10.6v-1.5c0-5.7-4.7-9.8-11.2-9.8h-40.5c0,0,2.9,3.5,2.9,10.5
						C190.6,412,187.7,415.5,187.7,415.5z"/>
				</g>
				<g>
					<path class="st6" d="M228.4,416c-0.3,0-0.6-0.1-0.8-0.4c-0.3-0.4-0.1-0.9,0.3-1.1c2.1-1.1,6.1-0.6,6.1-10.8
						c0-6.4-6.1-9.8-6.1-9.8c-0.4-0.2-0.6-0.7-0.3-1.1c0.3-0.4,0.8-0.5,1.3-0.3c0.3,0.2,7,3.9,7,11.1c0,8.3-6.7,12-7,12.2
						C228.8,416,228.6,416,228.4,416z"/>
				</g>
				<path class="st7" d="M292.2,392.9H185.3v1.4h46.1c1.9,2.1,4.4,4.9,4.4,9.1c0,5.6-3.3,9.4-5.2,10.8h-45.3v2.7h106.9
					c7,0,13-4.4,13-12.3v-1.5C305.2,396.8,299.7,392.9,292.2,392.9z"/>
				<g>
					<g>
						<path class="st8" d="M258.3,405c0-6.9-3.7-12.1-3.7-12.1h-6.9c0,0,3.7,5.2,3.7,12.1c0,7.9-3.7,11.9-3.7,11.9h6.9
							C254.6,416.9,258.3,413,258.3,405z"/>
					</g>
				</g>
				<g>
					<g>
						<path class="st8" d="M291.1,405c0-6.9-3.7-12.1-3.7-12.1h-6.9c0,0,3.7,5.2,3.7,12.1c0,7.9-3.7,11.9-3.7,11.9h6.9
							C287.4,416.9,291.1,413,291.1,405z"/>
					</g>
				</g>
			</g>
			<g>
				<g>
					<path class="st1" d="M289.8,279.2h-41.1c-4.4,0-8.7-3.6-8.7-7.4v-1c0-3.8,4.3-6.7,8.7-6.7h41.1c0,0-2,2.5-2,7.2
						C287.9,276.6,289.8,279.2,289.8,279.2z"/>
				</g>
				<g>
					<path class="st4" d="M248.1,278.5h-42.4c-4.4,0-8.1-3.1-8.1-6.9v-1c0-3.8,3.7-6.5,8.1-6.5h42.4c0,0-4.4,2.2-4.4,6.9
						C243.7,276.3,248.1,278.5,248.1,278.5z"/>
				</g>
				<g>
					<path class="st3" d="M248.6,279.2c0.2,0,0.4-0.1,0.5-0.3c0.2-0.3,0.1-0.6-0.2-0.7c-0.2-0.1-4.1-2.3-4.1-7.3
						c0-4.3,4.1-6.6,4.1-6.6c0.3-0.2,0.4-0.5,0.2-0.7c-0.2-0.3-0.7-0.3-0.9-0.1c-0.2,0.1-4.6,2.5-4.6,7.4c0,5.6,4.5,8.1,4.7,8.2
						C248.4,279.2,248.5,279.2,248.6,279.2z"/>
				</g>
				<g>
					<path class="st4" d="M205.7,279.8h85.8v-1.4h-85.8c-3.7,0-7.4-3.4-7.4-6.9v-1c0-3.2,3.5-5.8,7.4-5.8h85.8v-1.4h-85.8
						c-5.1,0-8.8,2.9-8.8,7.2v1C196.9,276,201,279.8,205.7,279.8z"/>
				</g>
			</g>
			<g>
				<g>
					<path class="st1" d="M213,263.4h47.4c2.9,0,5-3.3,5-6.2v-0.8c0-3-2.1-5.3-5-5.3H213c0,0,1.3,2.3,1.3,5.9
						C214.3,261.1,213,263.4,213,263.4z"/>
				</g>
				<g>
					<path class="st3" d="M261.2,263.1c-0.1,0-0.2-0.1-0.3-0.2c-0.1-0.2-0.3-0.2-0.2-0.3c0.1-0.1,2.6-2,2.6-5.7
						c0-3.2-2.3-4.9-2.3-4.9c-0.2-0.1-0.2-0.4-0.1-0.6c0.1-0.2,0.6,0.1,0.8,0.2c0.1,0.1,2.3,1.6,2.3,5.3c0,4.2-2.5,6.1-2.6,6.1
						C261.3,263.1,261.2,263.1,261.2,263.1z"/>
				</g>
				<path class="st9" d="M288.8,250.2h-76.7v2h49.8c0.8,1,1.9,2.6,1.9,4.8c0,2.6-1,4.4-1.9,5.4h-49.8v1h48.8h27.9h0c0,0,0.1,0,0.1,0
					c3-0.1,5.3-2.8,5.3-6.3v-0.8C294.2,253,292.1,250.2,288.8,250.2z"/>
			</g>
			<g>
				<rect x="177" y="367.6" class="st10" width="145.3" height="25.4"/>
				<rect x="185.3" y="367.6" class="st11" width="4.8" height="25.4"/>
				<rect x="193.5" y="367.6" class="st11" width="6.2" height="25.4"/>
			</g>
			<g>
				<rect x="180.5" y="279.8" class="st7" width="135" height="15.8"/>
				<rect x="305.9" y="279.8" class="st11" width="5.5" height="15.8"/>
				<rect x="299" y="279.8" class="st11" width="5.5" height="15.8"/>
			</g>
			<g>
				<g>
					<path class="st1" d="M323,339.5h-96.4c-6.3,0-11.2-2.5-11.2-8V330c0-5.5,5-6.3,11.2-6.3H323V339.5z"/>
				</g>
				<g>
					<path class="st2" d="M328.6,339.5h-63.1v-15.8h63.1c0,0-1.6,3.2-1.6,7.9C327,336.4,328.6,339.5,328.6,339.5z"/>
				</g>
				<g>
					<path class="st9" d="M227,340.2h103.6v-1.4H227c-7.2,0-10.2-2.6-10.2-7.3V330c0-4.1,2.7-5.6,10.2-5.6h103.6v-2.1H227
						c-5.3,0-11.6,1-11.6,7.7v1.5C215.4,335.4,216.7,340.2,227,340.2z"/>
				</g>
			</g>
		</g>
		<g>
			<ellipse class="st1" cx="384" cy="33.6" rx="3.9" ry="5.7"/>
			<path class="st9" d="M298.5,40.1l-40,1.5c0,0,0,0,0,0l-0.3-8c0,0,0,0,0,0l40-1.5c0,0,0,0,0,0L298.5,40.1
				C298.6,40.1,298.6,40.1,298.5,40.1z"/>
			<path class="st9" d="M326.8,39.4l-28.4,1.1c0,0,0,0,0,0l-0.3-8.7c0,0,0,0,0,0l28.4-1.1c0,0,0,0,0,0L326.8,39.4
				C326.8,39.4,326.8,39.4,326.8,39.4z"/>
			<path class="st9" d="M355.9,39.5l-28.4,1.1c0,0,0,0,0,0l-0.4-10.4c0,0,0,0,0,0l28.4-1.1c0,0,0.8-0.3,0.8-0.3L355.9,39.5
				C356,39.5,356,39.5,355.9,39.5z"/>
			<path class="st9" d="M385,39.4l-28.4,1.1c0,0,0,0,0,0l-0.5-12.4c0,0,0,0,0,0l28.4-1.1c0,0,0,0,0,0L385,39.4
				C385,39.4,385,39.4,385,39.4z"/>
			<g>
				<path class="st12" d="M258.4,41.9h-0.2c-0.3,0-0.6-0.3-0.6-0.6v-8c0-0.3,0.3-0.6,0.6-0.6h0.2c0.3,0,0.6,0.3,0.6,0.6v8
					C259,41.6,258.7,41.9,258.4,41.9z"/>
				<path class="st12" d="M298,41.3h-0.2c-0.3,0-0.6-0.3-0.6-0.6v-9.3c0-0.3,0.3-0.6,0.6-0.6h0.2c0.3,0,0.6,0.3,0.6,0.6v9.3
					C298.6,41.1,298.3,41.3,298,41.3z"/>
				<path class="st12" d="M327.2,41.3h-0.2c-0.3,0-0.6-0.3-0.6-0.6V29.9c0-0.3,0.3-0.6,0.6-0.6h0.2c0.3,0,0.6,0.3,0.6,0.6v10.8
					C327.7,41.1,327.5,41.3,327.2,41.3z"/>
				<path class="st12" d="M356.1,41.2h0.2c0.3,0,0.6-0.3,0.6-0.6V27.9c0-0.3-0.3-0.6-0.6-0.6h-0.2c-0.3,0-0.6,0.3-0.6,0.6v12.7
					C355.5,40.9,355.8,41.2,356.1,41.2z"/>
				<path class="st12" d="M385.3,40.5H385c-0.3,0-0.6-0.3-0.6-0.6v-13c0-0.3,0.3-0.6,0.6-0.6h0.2c0.3,0,0.6,0.3,0.6,0.6v13
					C385.8,40.2,385.6,40.5,385.3,40.5z"/>
			</g>
			<path class="st13" d="M234.8,59c0,0-9.9,27.1,0,11.6c0,0,0,0,0,0c0.4,0,0.8,0.1,1.2,0.3c0.4-0.2,1-0.3,1.4-0.2
				c0.1-0.1,3.3,8.5,3.4,8.4l-3.1-8.9c0.1-0.1,0.1-0.1,0.2-0.2c-0.1-0.3,1.4,8.9,1.2,8.5c0.1-2,1-18.2,1-18.2
				C235.2,59.6,234.8,59,234.8,59z"/>
			<g>
				<g>
					<path class="st13" d="M296.9,36.9c-0.3,0.6-0.7,1.1-1.1,1.5c-0.7,1.1-2,1.9-2.6,2c-0.1,0-0.2,0-0.4-0.1c-0.5,0.1-1,0.2-1.6,0.2
						c-0.2,0-0.5,0-0.7,0c-0.2,0-0.4,0-0.6,0c-0.1,0-0.2,0-0.4,0c0,1.1,0.6,2.7,2.1,4.7c2.5,3.3,4.4,5.5,4.4,5.5s-2.7,12.1-6.7,16.8
						c-4,4.7,6.1,2.8,7.4,3.5c0,0,4.9-11.5,5.6-18.3c0,0,4-8.4,4.2-11.9C306.7,38.5,300.2,33.9,296.9,36.9z"/>
				</g>
				<g>
					<path class="st14" d="M230.4,234.9c0,0-3.3,10.7-3.5,13.3c-0.2,2.7,11.8,2.7,12.9,2c1.1-0.8,3.8-13.5,2.7-13.9
						C241.4,236,230.8,233.7,230.4,234.9z"/>
					<path class="st15" d="M229.5,235.8c0,0,2,1.8,5.3,3.2c3.3,1.3,7.7-2.4,7.7-2.4c4.7-10.7,11-78.4,11-78.4s-15.5-16.9-16.8-11.7
						s4.1,28.8,2.2,42.9L229.5,235.8z"/>
				</g>
				<g>
					<path class="st4" d="M251.1,236.4c0,0,4.3,7.9,5.4,8.5c1.1,0.6,8.9,0,9.7,0.6c0.7,0.6,0.7,4.6,0.7,4.6
						c-1.9,0.6-11.2,1.3-14.6,1.3s-12.1,0.3-14.1-1.2c-0.3-1,2.7-13.1,3.6-14.4C242.4,234.5,250.6,233.9,251.1,236.4z"/>
					<path class="st16" d="M269.1,143.3c0,0,0.2,42.8-2.7,52.3c-2.9,9.5-10.5,33.6-11.2,35.6c0,0,0,2.3-0.2,3.4
						c-0.2,1.1-2.2,5.4-3.4,6.3c-1.2,0.9-9.8,1.5-11.6-2.2c0,0,3.7-15.2,5.3-21.4s5.4-44.2,4.8-58.1c0,0-11.3-6.1-12.7-9.9
						c-1.2-3.4-2-7.5-2-8.1C235.4,140.7,269.1,143.3,269.1,143.3z"/>
				</g>
				<g>
					<path class="st7" d="M232.6,144.4c0,0,4-21.6-0.3-36.2c-4.3-14.7-13-31.6-9-38.4c0,0,3.3-0.9,7.4,0c4.1,0.9,11.7,0.5,11.7,0.5
						s7.4,0.5,9.2,0.9c1.8,0.4,13.9,10.1,21.3,11.4c7.4,1.3,17.6-21.1,19.2-24c1.6-2.8,9.7-1.3,10,1.4c0.3,2.6-7.7,26.4-16.5,31
						c-8.8,4.6-23.2,1.3-23.2,1.3s11.1,29.3,8.4,54.4C270.7,146.7,250.6,151.6,232.6,144.4z"/>
					<path class="st17" d="M245.1,70.3c0,0-1.1-4-1.7-4.3s-13.1,1.4-16.8,0c0,0-0.4,2.1,0,3.8C226.6,69.9,231,73.8,245.1,70.3z"/>
				</g>
				<g>
					<path class="st13" d="M266.9,41.2c-3.2,0.2-4.6-1.9-5.3-1.3c-0.7,0.6-0.8,2.9,1.7,6.1c2.5,3.3,4.4,5.5,4.4,5.5
						s-2.7,12.1-6.7,16.8c-4,4.7,6.1,2.8,7.4,3.5c0,0,4.9-11.5,5.6-18.3c0,0,5.6-10.6,6.1-12.7C275.7,41.2,271.3,41,266.9,41.2z"/>
				</g>
				<g>
					<path class="st7" d="M273.1,62.4c-0.3-2.6-8.4-4.2-10-1.4c-1.6,2.8-11.8,25.2-19.2,24c-5.2-0.9-12.6-5.9-17.2-8.9
						c1.2,2.4,2.3,4.8,3.7,7.1c2.3,3.9,4.2,7.9,5.8,12c4.6,0.7,14,1.5,20.4-1.8C265.4,88.9,273.4,65,273.1,62.4z"/>
				</g>
			</g>
			<path class="st13" d="M248,25.6c0,0,0.1,6.6,3.1,15.9c3,9.6,4.2,11.4,4.6,13.5c2,9.8-16.4,9.5-21.3,5.7
				c-4.9-3.8-11.3-25.5-12-29.9C221.7,26.5,241,11.4,248,25.6z"/>
			<path class="st4" d="M231.3,49.2c0,0,5-3.2,2.5-12.2c-0.9-3.2-0.4-5.9-0.4-5.9s-1.1,2,4.9-3.7c2-1.9,9.7,0.8,12.7-1.4
				s8.2-11.7-1.3-14.8c-9.8-3.2-20.5-5.9-16.2-3c16.5,11.2-10.2,8.4-16,15.9c0,0,0.9-3.1-0.6-3.1c-3,0-0.2,3.1-0.2,3.1
				s-2-2.6-3.1-0.3c-1.2,2.3,2.5,2.3,2.5,2.3s-8,10.4,2.4,21c0,0,8.8,8,9.1,9.9c0.3,1.9,2.7-1,2.7-1s-1.7,4.5,2.3,2.3
				C239.3,54.9,231.3,49.2,231.3,49.2z"/>
			<g>
				<path class="st13" d="M234.1,44c0,0-3-2.5-6-0.6c-3.1,2,1,9.9,7.4,5C235.4,48.5,236.7,47.2,234.1,44z"/>
				<path class="st18" d="M235.1,45.6C235.1,45.6,235.1,45.6,235.1,45.6c-1,0.8-2.3,1.1-3.3,0.4c-0.9-0.6-1.1-1.6-1-2.6
					c0-0.2,0.1-0.4,0.1-0.6c-0.9-0.1-1.9,0.1-2.9,0.7c-3.1,2,1,9.9,7.4,5C235.4,48.5,236.3,47.6,235.1,45.6z"/>
				<path class="st19" d="M234.7,47.6c0,0-4.4,0.8-6.2-1.9C228.5,45.7,229.2,50.5,234.7,47.6z"/>
			</g>
			<path class="st4" d="M244.9,29.1c0,0,0.9,1.3-0.3,2.8c-1.2,1.6-3.9-0.2-5.3,2.7s-2.1-2.6,3.4-3.9
				C242.7,30.8,243.1,28.1,244.9,29.1z"/>
			<path class="st20" d="M247.5,37c0,0-0.1,0.1-0.2,0.1c0,0,0,0,0,0s0,0,0,0c-0.2,0.2-0.8,0.6-1.6,0.9c-1.1,0.4-2.1,0.1-2.1,0.1
				s1.1,0.6,2.1,0.3c0.1,0,0.2-0.1,0.2-0.1c-0.1,0-0.2,0.1-0.2,0.1c-1,0.5-2.1,0.4-2.1,0.4s1.1,0.4,2.1-0.1c0.7-0.3,1.2-1,1.4-1.4
				C247.4,37.2,247.5,37,247.5,37z"/>
			<g>
				<path class="st21" d="M247.1,48.6c0.7,0.5,1.3,1,2,1.2c0.3,0.1,0.7,0.1,1,0c0.3-0.1,0.7-0.3,1.1-0.5c-0.2,0.4-0.4,0.8-0.8,1
					c-0.4,0.3-0.9,0.3-1.4,0.2C248,50.2,247.4,49.4,247.1,48.6z"/>
			</g>
			<path class="st4" d="M232.8,36.1c0,0,3.7,4.5,5.4,8.7c0.3,0.8-0.5,1.5-1.3,1.1c-1.8-1.1-5-2.8-4.5-4.3
				C232.6,41,232.8,36.1,232.8,36.1z"/>
			<path class="st13" d="M250.4,40c1.2-1.9,6.8,1.7,1.2,4.4"/>
			<g class="st22">
				<path class="st23" d="M250,73.2c-0.6,0.3-1.2,0.7-1.8,1.1c-0.6,0.4-1.1,0.8-1.6,1.3c-1,0.9-1.9,2-2.4,3.2
					c-0.6,1.2-0.8,2.6-0.6,3.9l0,0.5c0,0.2,0.1,0.3,0.1,0.5l0.2,1c0.2,0.7,0.4,1.3,0.6,2c-0.3-0.6-0.7-1.2-1-1.9l-0.3-1
					c0-0.2-0.1-0.3-0.2-0.5l-0.1-0.5c-0.3-1.4,0-2.9,0.5-4.3c0.6-1.3,1.6-2.5,2.7-3.4C247.4,74.3,248.7,73.6,250,73.2z"/>
			</g>
			<path class="st13" d="M306.7,40.4c-0.1-2-0.4-4.6-1.1-7.9c-0.6-2.8-12-1.2-13.4,0.9c0-0.1,1.1,6.6,0.2,8.7
				c-0.6,1.3,5.9,2,10.3,2.4C303.2,42.6,304.5,40.9,306.7,40.4z"/>
			<ellipse class="st13" cx="268.8" cy="35.4" rx="1.8" ry="3.3"/>
			<ellipse class="st13" cx="271.8" cy="35" rx="1.8" ry="3.3"/>
			<ellipse class="st13" cx="275.1" cy="34.6" rx="1.8" ry="3.3"/>
			<ellipse class="st13" cx="278.6" cy="34.6" rx="1.8" ry="3.3"/>
			<ellipse class="st13" cx="294.1" cy="33.3" rx="1.8" ry="3.3"/>
			<ellipse class="st13" cx="297.1" cy="32.9" rx="1.8" ry="3.3"/>
			<ellipse class="st13" cx="300.4" cy="32.5" rx="1.8" ry="3.3"/>
			<ellipse class="st13" cx="303.9" cy="32.5" rx="1.8" ry="3.3"/>
			<g class="st22">
				<path class="st23" d="M235,101.5C234.9,101.5,234.9,101.5,235,101.5C235,101.5,235,101.5,235,101.5L235,101.5l0.1,0.2l0.1,0.3
					l0.2,0.6l0.4,1.1l0.8,2.2c0.5,1.5,1,3,1.5,4.6c0.9,3.1,1.7,6.2,2.3,9.3c0.6,3.1,1.1,6.3,1.2,9.5c0,1.6,0,3.2-0.3,4.8
					c-0.3,1.6-0.8,3.2-1.9,4.3c1-1.3,1.4-2.8,1.6-4.4c0.2-1.6,0.2-3.2,0.1-4.7c-0.2-3.2-0.7-6.3-1.3-9.4c-0.6-3.1-1.4-6.2-2.2-9.3
					c-0.4-1.5-0.8-3.1-1.3-4.6l-0.7-2.3l-0.4-1.1l-0.2-0.6l-0.1-0.3L235,101.5C235,101.6,234.9,101.4,235,101.5z"/>
			</g>
		</g>
	</g>
	<g>
		<polygon id="XMLID_14_" class="st7" points="140.3,168.1 138.5,164.3 86.9,203.8 109.4,240.2 160.7,196.9 		"/>
		<polygon id="XMLID_13_" class="st24" points="89,204.6 108.8,238.8 110.1,238.2 92.5,206.3 		"/>
		<path id="XMLID_12_" class="st25" d="M139.3,167.4L89,204.6c0,0,0.2,0.8,1.5,1.3c1.2,0.5,2,0.4,2,0.4l52.9-36.2c0,0-3-0.7-4.2-1.5
			C140,167.7,139.3,167.4,139.3,167.4z"/>
		<path id="XMLID_11_" class="st7" d="M146.6,168.6l-55.1,36.8l17.9,33.9l2.9,4.7l55.1-40.8c0,0-5.8-8.7-9.3-13.9
			c-3.5-5.2-10.3-17.6-10.7-18.3C147,170.2,146.6,168.6,146.6,168.6z"/>
	</g>
	<g>
		<polygon id="XMLID_10_" class="st26" points="385.9,274.6 387.3,271.6 427.8,302.5 410.1,331.1 369.9,297.2 		"/>
		<polygon id="XMLID_9_" class="st24" points="426.1,303.2 410.6,330 409.6,329.5 423.4,304.5 		"/>
		<path id="XMLID_8_" class="st25" d="M386.7,274l39.4,29.2c0,0-0.2,0.6-1.1,1c-1,0.4-1.5,0.3-1.5,0.3L382,276.1
			c0,0,2.4-0.6,3.3-1.2C386.1,274.3,386.7,274,386.7,274z"/>
		<path id="XMLID_7_" class="st26" d="M380.9,275l43.2,28.8l-14,26.6l-2.3,3.7l-43.2-32c0,0,4.5-6.8,7.3-10.9
			c2.7-4.1,8.1-13.8,8.4-14.4C380.6,276.2,380.9,275,380.9,275z"/>
	</g>
	<polygon class="st27" points="360.4,225.1 393.1,204.8 366.1,157.7 336.2,177.1 	"/>
</g>
</svg>
