<?xml version="1.0" encoding="utf-8"?>
<!-- Generator: Adobe Illustrator 21.0.0, SVG Export Plug-In . SVG Version: 6.00 Build 0)  -->
<svg version="1.1" id="Camada_1" xmlns="http://www.w3.org/2000/svg" xmlns:xlink="http://www.w3.org/1999/xlink" x="0px" y="0px"
	 viewBox="0 0 80.9 530.3" style="enable-background:new 0 0 80.9 530.3;" xml:space="preserve">
<style type="text/css">
	.st0{fill:#5A2F81;}
</style>
<g id="Camada_1_1_">
	<rect x="0" y="0" class="st0" width="80.9" height="530.3"/>
	<path class="st0" d="M-102.7-189.8L-427-311.1l28.6-74.9l324.2,121.3c20.9,7.8,31.4,30.9,23.5,51.6l0,0
		C-58.5-192.4-81.8-182-102.7-189.8z"/>
	<path class="st0" d="M-1515.4-112.2l324.2-121.3l-28.6-74.9L-1544-187.1c-20.9,7.8-31.4,30.9-23.5,51.6l0,0
		C-1559.6-114.8-1536.3-104.4-1515.4-112.2z"/>
	<path class="st0" d="M-1296.2,270.8L-1078,15.1l-61.8-51.7L-1358,219.1c-14.5,17-12.4,42.3,4.7,56.6l0,0
		C-1336.2,289.9-1310.7,287.8-1296.2,270.8z"/>
	<path class="st0" d="M-336.8,289.9L-554.1,35.3l61.8-51.7L-275,238.2c14.4,16.9,12.3,42.2-4.8,56.4l0,0
		C-296.8,308.9-322.3,306.8-336.8,289.9z"/>
	<path class="st0" d="M-754.6-550.6c-135,0-244.4,108.4-244.4,242.2S-889.6-66.2-754.6-66.2s244.4-108.4,244.4-242.2
		S-619.6-550.6-754.6-550.6z M-754.6-147c-90,0-162.9-72.3-162.9-161.4s72.9-161.5,162.9-161.5s162.9,72.3,162.9,161.4
		S-664.6-147-754.6-147z"/>
</g>
<g id="Camada_2">
</g>
</svg>
