<?xml version="1.0" encoding="utf-8"?>
<!-- Generator: Adobe Illustrator 21.0.0, SVG Export Plug-In . SVG Version: 6.00 Build 0)  -->
<svg version="1.1" id="Camada_1" xmlns="http://www.w3.org/2000/svg" xmlns:xlink="http://www.w3.org/1999/xlink" x="0px" y="0px"
	 viewBox="0 0 488.8 484.4" style="enable-background:new 0 0 488.8 484.4;" xml:space="preserve">
<style type="text/css">
	.st0{fill:#5A2F81;}
</style>
<g id="Camada_1_1_">
	<rect x="-559.1" y="271.4" class="st0" width="80.9" height="530.3"/>
	<path class="st0" d="M-206.2,575.8l-324.3-121.3l28.6-74.9l324.2,121.3c20.9,7.8,31.4,30.9,23.5,51.6l0,0
		C-162,573.2-185.3,583.6-206.2,575.8z"/>
	<path class="st0" d="M-828.7,575.8l324.2-121.3l-28.6-74.9l-324.2,121.3c-20.9,7.8-31.4,30.9-23.5,51.6l0,0
		C-872.9,573.2-849.6,583.6-828.7,575.8z"/>
	<path class="st0" d="M-691.5,1083.7L-473.3,828l-61.8-51.7L-753.3,1032c-14.5,17-12.4,42.3,4.7,56.6l0,0
		C-731.5,1102.8-706,1100.7-691.5,1083.7z"/>
	<path class="st0" d="M-346.9,1083.8l-217.3-254.6l61.8-51.7l217.3,254.6c14.4,16.9,12.3,42.2-4.8,56.4l0,0
		C-306.9,1102.8-332.4,1100.7-346.9,1083.8z"/>
	<path class="st0" d="M244.4,0C109.4,0,0,108.4,0,242.2s109.4,242.2,244.4,242.2S488.8,376,488.8,242.2S379.4,0,244.4,0z
		 M244.4,403.6c-90,0-162.9-72.3-162.9-161.4S154.4,80.7,244.4,80.7S407.3,153,407.3,242.1S334.4,403.6,244.4,403.6z"/>
</g>
<g id="Camada_2">
</g>
</svg>
