<?xml version="1.0" encoding="utf-8"?>
<!-- Generator: Adobe Illustrator 22.0.1, SVG Export Plug-In . SVG Version: 6.00 Build 0)  -->
<svg version="1.1" xmlns="http://www.w3.org/2000/svg" xmlns:xlink="http://www.w3.org/1999/xlink" x="0px" y="0px"
	 viewBox="0 0 731.8 1280" style="enable-background:new 0 0 731.8 1280;" xml:space="preserve">
<style type="text/css">
	.st0{fill:#5A2F81;}
</style>
<g id="Camada_1">
	
		<rect x="99.2" y="678.1" transform="matrix(-1.217703e-10 1 -1 -1.217703e-10 1082.8517 354.1934)" class="st0" width="530.3" height="80.9"/>
	<path class="st0" d="M676.8,757.8L352.5,636.5l28.6-74.9l324.2,121.3c20.9,7.8,31.4,30.9,23.5,51.6l0,0
		C721,755.2,697.7,765.6,676.8,757.8z"/>
	<path class="st0" d="M54.3,757.8l324.2-121.3l-28.6-74.9L25.7,682.9c-20.9,7.8-31.4,30.9-23.5,51.6l0,0
		C10.1,755.2,33.4,765.6,54.3,757.8z"/>
	<path class="st0" d="M191.5,1265.7L409.7,1010l-61.8-51.7L129.7,1214c-14.5,17-12.4,42.3,4.7,56.6h0
		C151.5,1284.8,177,1282.7,191.5,1265.7z"/>
	<path class="st0" d="M536.1,1265.8l-217.3-254.6l61.8-51.7l217.3,254.6c14.4,16.9,12.3,42.2-4.8,56.4h0
		C576.1,1284.8,550.6,1282.7,536.1,1265.8z"/>
	<path class="st0" d="M365.4,0C230.4,0,121,108.4,121,242.2s109.4,242.2,244.4,242.2s244.4-108.4,244.4-242.2S500.4,0,365.4,0z
		 M365.4,403.6c-90,0-162.9-72.3-162.9-161.4S275.4,80.7,365.4,80.7c90,0,162.9,72.3,162.9,161.4S455.4,403.6,365.4,403.6z"/>
</g>
<g id="Camada_2">
</g>
</svg>
