<?xml version="1.0" encoding="utf-8"?>
<!-- Generator: Adobe Illustrator 21.0.0, SVG Export Plug-In . SVG Version: 6.00 Build 0)  -->
<svg version="1.1" id="Camada_1" xmlns="http://www.w3.org/2000/svg" xmlns:xlink="http://www.w3.org/1999/xlink" x="0px" y="0px"
	 viewBox="0 0 20 23" style="enable-background:new 0 0 20 23;" xml:space="preserve">
<style type="text/css">
	.st0{fill:#F0F1F1;}
	.st1{fill:#5A2F81;}
</style>
<path class="st0" d="M19,14.8L4.9,22.9c-0.4,0.2-1,0.1-1.2-0.3c-0.1-0.1-0.1-0.3-0.1-0.4V5.9c0-0.3,0.2-0.6,0.4-0.8
	C4.1,5,4.3,5,4.5,5c0.2,0,0.3,0,0.4,0.1L19,13.2c0.4,0.2,0.6,0.8,0.3,1.2C19.2,14.6,19.1,14.7,19,14.8z"/>
<path class="st1" d="M17.5,8.4L3.5,0.3C2.4-0.3,0.9,0,0.3,1.2C0.1,1.5,0,1.9,0,2.3v16.2c0,1.3,1,2.3,2.3,2.3c0.4,0,0.8-0.1,1.2-0.3
	l14.1-8.1c1.1-0.6,1.5-2.1,0.9-3.2C18.2,8.9,17.9,8.6,17.5,8.4z M16.8,11.2L2.7,19.3c-0.4,0.2-1,0.1-1.2-0.3
	c-0.1-0.1-0.1-0.3-0.1-0.4V2.3c0-0.3,0.2-0.6,0.4-0.8C2,1.5,2.1,1.4,2.3,1.4c0.2,0,0.3,0,0.4,0.1l14.1,8.1c0.4,0.2,0.6,0.8,0.3,1.2
	C17.1,11,17,11.2,16.8,11.2z"/>
</svg>
