<?xml version="1.0" encoding="utf-8"?>
<!-- Generator: Adobe Illustrator 21.0.0, SVG Export Plug-In . SVG Version: 6.00 Build 0)  -->
<svg version="1.1" id="Camada_1" xmlns="http://www.w3.org/2000/svg" xmlns:xlink="http://www.w3.org/1999/xlink" x="0px" y="0px"
	 viewBox="0 0 288.7 320.5" style="enable-background:new 0 0 288.7 320.5;" xml:space="preserve">
<style type="text/css">
	.st0{fill:#5A2F81;}
</style>
<g id="Camada_1_1_">
	<rect x="-679" y="143.8" class="st0" width="80.9" height="530.3"/>
	<path class="st0" d="M13.4-189.8l-324.3-121.3l28.6-74.9L41.9-264.7c20.9,7.8,31.4,30.9,23.5,51.6l0,0
		C57.6-192.4,34.3-182,13.4-189.8z"/>
	<path class="st0" d="M-1399.3-112.2l324.2-121.3l-28.6-74.9l-324.2,121.3c-20.9,7.8-31.4,30.9-23.5,51.6l0,0
		C-1443.5-114.8-1420.2-104.4-1399.3-112.2z"/>
	<path class="st0" d="M-811.4,956.1l218.2-255.7l-61.8-51.7l-218.2,255.7c-14.5,17-12.4,42.3,4.7,56.6l0,0
		C-851.4,975.2-825.9,973.1-811.4,956.1z"/>
	<path class="st0" d="M217.3,306.3L0,51.7L61.8,0l217.3,254.6c14.4,16.9,12.3,42.2-4.8,56.4l0,0
		C257.3,325.3,231.8,323.2,217.3,306.3z"/>
	<path class="st0" d="M-638.6-550.6c-135,0-244.4,108.4-244.4,242.2S-773.6-66.2-638.6-66.2s244.4-108.4,244.4-242.2
		S-503.6-550.6-638.6-550.6z M-638.6-147c-90,0-162.9-72.3-162.9-161.4s72.9-161.5,162.9-161.5s162.9,72.3,162.9,161.4
		S-548.6-147-638.6-147z"/>
</g>
<g id="Camada_2">
</g>
</svg>
