<?xml version="1.0" encoding="utf-8"?>
<!-- Generator: Adobe Illustrator 21.0.0, SVG Export Plug-In . SVG Version: 6.00 Build 0)  -->
<svg version="1.1" id="Camada_1" xmlns="http://www.w3.org/2000/svg" xmlns:xlink="http://www.w3.org/1999/xlink" x="0px" y="0px"
	 viewBox="0 0 289.1 321.1" style="enable-background:new 0 0 289.1 321.1;" xml:space="preserve">
<style type="text/css">
	.st0{fill:#5A2F81;}
</style>
<g id="Camada_1_1_">
	<rect x="-678.5" y="143.8" class="st0" width="80.9" height="530.3"/>
	<path class="st0" d="M13.9-189.8l-324.3-121.3l28.6-74.9L42.4-264.7c20.9,7.8,31.4,30.9,23.5,51.6l0,0
		C58.1-192.4,34.8-182,13.9-189.8z"/>
	<path class="st0" d="M-1398.9-112.2l324.2-121.3l-28.6-74.9l-324.2,121.3c-20.9,7.8-31.4,30.9-23.5,51.6l0,0
		C-1443.1-114.8-1419.8-104.4-1398.9-112.2z"/>
	<path class="st0" d="M71.4,306.8L289.6,51.1L227.8-0.6L9.6,255.1c-14.5,17-12.4,42.3,4.7,56.6l0,0
		C31.4,325.9,56.9,323.8,71.4,306.8z"/>
	<path class="st0" d="M-220.3,289.9L-437.6,35.3l61.8-51.7l217.3,254.6c14.4,16.9,12.3,42.2-4.8,56.4l0,0
		C-180.3,308.9-205.8,306.8-220.3,289.9z"/>
	<path class="st0" d="M-638.1-550.6c-135,0-244.4,108.4-244.4,242.2S-773.1-66.2-638.1-66.2s244.4-108.4,244.4-242.2
		S-503.1-550.6-638.1-550.6z M-638.1-147c-90,0-162.9-72.3-162.9-161.4s72.9-161.5,162.9-161.5s162.9,72.3,162.9,161.4
		S-548.1-147-638.1-147z"/>
</g>
<g id="Camada_2">
</g>
</svg>
