<?xml version="1.0" encoding="utf-8"?>
<!-- Generator: Adobe Illustrator 22.0.1, SVG Export Plug-In . SVG Version: 6.00 Build 0)  -->
<svg version="1.1" xmlns="http://www.w3.org/2000/svg" xmlns:xlink="http://www.w3.org/1999/xlink" x="0px" y="0px"
	 viewBox="0 0 920.9 1280" style="enable-background:new 0 0 920.9 1280;" xml:space="preserve">
<style type="text/css">
	.st0{fill:#5A2F81;}
</style>
<g id="Camada_1">
	<path class="st0" d="M375.4,1280H36.6c-16.5,0-29.9-13.4-29.9-29.9l0,0c0-16.5,13.4-29.9,29.9-29.9h338.8
		c16.5,0,29.9,13.4,29.9,29.9l0,0C405.3,1266.6,391.9,1280,375.4,1280z"/>
	
		<rect x="147.7" y="142.8" transform="matrix(0.7071 -0.7071 0.7071 0.7071 -20.4734 295.9852)" class="st0" width="398.7" height="59.9"/>
	<path class="st0" d="M856.9,0h-621h-31.8C188.6,0,176,12.6,176,28.1v31.8v1190.7h59.9V59.9h621v251.2h59.9V59.9V27.3
		c0-15.1-12.2-27.3-27.3-27.3H856.9z"/>
</g>
<g id="Camada_2">
</g>
</svg>
